<svg xmlns="http://www.w3.org/2000/svg" xmlns:xlink="http://www.w3.org/1999/xlink" width="500" zoomAndPan="magnify" viewBox="0 0 375 374.999991" height="500" preserveAspectRatio="xMidYMid meet" version="1.0"><defs><g/><clipPath id="383a7ff037"><path d="M 107.59375 107.59375 L 267.597656 107.59375 L 267.597656 267.597656 L 107.59375 267.597656 Z M 107.59375 107.59375 " clip-rule="nonzero"/></clipPath><clipPath id="3b66a28cc3"><path d="M 187.5 267.40625 C 166.167969 267.40625 146.078125 259.101562 131.003906 243.996094 C 115.898438 228.921875 107.59375 208.832031 107.59375 187.5 C 107.59375 166.167969 115.898438 146.078125 131.003906 131.003906 C 146.078125 115.898438 166.167969 107.59375 187.5 107.59375 C 208.832031 107.59375 228.921875 115.898438 243.996094 131.003906 C 259.101562 146.109375 267.40625 166.167969 267.40625 187.5 C 267.40625 208.832031 259.101562 228.921875 243.996094 243.996094 C 228.921875 259.101562 208.832031 267.40625 187.5 267.40625 M 187.5 112.386719 C 167.445312 112.386719 148.570312 120.210938 134.390625 134.390625 C 120.210938 148.570312 112.386719 167.445312 112.386719 187.5 C 112.386719 207.554688 120.210938 226.429688 134.390625 240.609375 C 148.570312 254.789062 167.445312 262.613281 187.5 262.613281 C 207.554688 262.613281 226.429688 254.789062 240.609375 240.609375 C 254.789062 226.429688 262.613281 207.554688 262.613281 187.5 C 262.613281 167.445312 254.789062 148.570312 240.609375 134.390625 C 226.429688 120.210938 207.554688 112.386719 187.5 112.386719 " clip-rule="nonzero"/></clipPath></defs><rect x="-37.5" width="450" fill="#ffffff" y="-37.499999" height="449.999989" fill-opacity="1"/><rect x="-37.5" width="450" fill="#ffffff" y="-37.499999" height="449.999989" fill-opacity="1"/><rect x="-37.5" width="450" fill="#f4f4f4" y="-37.499999" height="449.999989" fill-opacity="1"/><g clip-path="url(#383a7ff037)"><g clip-path="url(#3b66a28cc3)"><path fill="#000000" d="M 107.59375 107.59375 L 267.277344 107.59375 L 267.277344 267.277344 L 107.59375 267.277344 Z M 107.59375 107.59375 " fill-opacity="1" fill-rule="nonzero"/></g></g><g fill="#000000" fill-opacity="1"><g transform="translate(138.706483, 206.624986)"><g><path d="M 21.3125 -17.082031 L 21.3125 -39.746094 L 4.960938 -39.746094 L 4.960938 -34.558594 L 15.617188 -34.558594 L 15.617188 -17.082031 C 15.617188 -9.695312 12.570312 -5.074219 2.425781 -5.074219 C 1.804688 -5.074219 1.128906 -5.074219 0.449219 -5.128906 L 0.449219 0.226562 C 1.015625 0.226562 1.636719 0.28125 2.140625 0.28125 C 16.066406 0.28125 21.3125 -5.808594 21.3125 -17.082031 Z M 21.3125 -17.082031 "/></g></g></g><g fill="#000000" fill-opacity="1"><g transform="translate(203.602491, 206.624986)"><g><path d="M 2.199219 -19.621094 C 2.199219 -14.152344 4.566406 -9.132812 7.949219 -5.523438 C 11.386719 -1.917969 16.347656 0.28125 21.707031 0.28125 C 30.894531 0.28125 38.109375 -5.808594 40.367188 -14.769531 L 34.785156 -14.769531 C 32.753906 -8.792969 27.679688 -5.355469 21.707031 -5.355469 C 17.929688 -5.355469 14.152344 -6.933594 11.671875 -9.527344 C 9.191406 -12.121094 7.722656 -15.671875 7.722656 -19.621094 C 7.722656 -23.679688 9.246094 -27.175781 11.726562 -29.765625 C 14.207031 -32.359375 17.929688 -34.164062 21.707031 -34.164062 C 27.511719 -34.164062 32.359375 -31.007812 34.445312 -25.089844 L 40.085938 -25.089844 C 37.828125 -33.996094 30.726562 -39.800781 21.707031 -39.800781 C 16.347656 -39.800781 11.21875 -37.320312 7.78125 -33.769531 C 4.398438 -30.160156 2.199219 -25.199219 2.199219 -19.621094 Z M 2.199219 -19.621094 "/></g></g></g><path stroke-linecap="butt" transform="matrix(0.000000000000000046, -0.748212, 0.75, 0.000000000000000046, 184.874128, 219.451157)" fill="none" stroke-linejoin="miter" d="M 0.00259023 3.501162 L 85.205723 3.501162 " stroke="#000000" stroke-width="7" stroke-opacity="1" stroke-miterlimit="4"/></svg>